<mxfile host="app.diagrams.net" agent="Mozilla/5.0 (Windows NT 10.0; Win64; x64) AppleWebKit/537.36 (KHTML, like Gecko) Chrome/131.0.0.0 Safari/537.36" version="28.2.5">
  <diagram name="Page-1" id="52a04d89-c75d-2922-d76d-85b35f80e030">
    <mxGraphModel dx="3001" dy="1047" grid="1" gridSize="10" guides="1" tooltips="1" connect="1" arrows="1" fold="1" page="1" pageScale="1" pageWidth="1100" pageHeight="850" background="none" math="0" shadow="0">
      <root>
        <mxCell id="0" />
        <mxCell id="1" parent="0" />
        <mxCell id="21ea969265ad0168-30" value="Patients" style="html=1;rounded=0;shadow=0;comic=0;labelBackgroundColor=none;strokeWidth=2;fontFamily=Verdana;fontSize=12;align=center;shape=mxgraph.ios7ui.horLines;" parent="1" vertex="1">
          <mxGeometry x="1680" y="80" width="135" height="50" as="geometry" />
        </mxCell>
        <mxCell id="17472293e6e8944d-29" value="Сотрудник ресепшена" style="whiteSpace=wrap;html=1;rounded=0;shadow=0;comic=0;labelBackgroundColor=none;strokeWidth=1;fontFamily=Verdana;fontSize=12;align=center;" parent="1" vertex="1">
          <mxGeometry x="750" y="79" width="120" height="50" as="geometry" />
        </mxCell>
        <mxCell id="1fdf3b25b50cf41e-27" style="edgeStyle=none;html=1;labelBackgroundColor=none;startFill=0;startSize=8;endFill=1;endSize=8;fontFamily=Verdana;fontSize=12;" parent="1" source="17472293e6e8944d-30" target="Cn7vjRRLhSuz2T1DTuax-1" edge="1">
          <mxGeometry relative="1" as="geometry">
            <mxPoint x="30" y="102" as="targetPoint" />
          </mxGeometry>
        </mxCell>
        <mxCell id="wmSecnhCIObgYq9AWwNq-1" value="Обращение в &lt;br&gt;медицинский центр" style="edgeLabel;html=1;align=center;verticalAlign=middle;resizable=0;points=[];" parent="1fdf3b25b50cf41e-27" vertex="1" connectable="0">
          <mxGeometry x="0.216" y="2" relative="1" as="geometry">
            <mxPoint x="-32" y="2" as="offset" />
          </mxGeometry>
        </mxCell>
        <mxCell id="17472293e6e8944d-30" value="Пациент" style="whiteSpace=wrap;html=1;rounded=0;shadow=0;comic=0;labelBackgroundColor=none;strokeWidth=1;fontFamily=Verdana;fontSize=12;align=center;" parent="1" vertex="1">
          <mxGeometry x="-100" y="79" width="120" height="50" as="geometry" />
        </mxCell>
        <mxCell id="1fdf3b25b50cf41e-28" style="edgeStyle=none;html=1;labelBackgroundColor=none;startFill=0;startSize=8;endFill=1;endSize=8;fontFamily=Verdana;fontSize=12;" parent="1" source="1fdf3b25b50cf41e-1" target="17472293e6e8944d-29" edge="1">
          <mxGeometry relative="1" as="geometry" />
        </mxCell>
        <mxCell id="wmSecnhCIObgYq9AWwNq-8" value="Передача сотруднику" style="edgeLabel;html=1;align=center;verticalAlign=middle;resizable=0;points=[];" parent="1fdf3b25b50cf41e-28" vertex="1" connectable="0">
          <mxGeometry x="-0.142" y="1" relative="1" as="geometry">
            <mxPoint x="1" y="1" as="offset" />
          </mxGeometry>
        </mxCell>
        <mxCell id="1fdf3b25b50cf41e-29" style="edgeStyle=none;html=1;labelBackgroundColor=none;startFill=0;startSize=8;endFill=1;endSize=8;fontFamily=Verdana;fontSize=12;entryX=0.5;entryY=0;entryDx=0;entryDy=0;" parent="1" source="1fdf3b25b50cf41e-1" target="wmSecnhCIObgYq9AWwNq-2" edge="1">
          <mxGeometry relative="1" as="geometry">
            <mxPoint x="500" y="200" as="targetPoint" />
          </mxGeometry>
        </mxCell>
        <mxCell id="wmSecnhCIObgYq9AWwNq-7" value="Дополнение формы" style="edgeLabel;html=1;align=center;verticalAlign=middle;resizable=0;points=[];" parent="1fdf3b25b50cf41e-29" vertex="1" connectable="0">
          <mxGeometry x="-0.0424" relative="1" as="geometry">
            <mxPoint as="offset" />
          </mxGeometry>
        </mxCell>
        <mxCell id="1fdf3b25b50cf41e-38" style="html=1;labelBackgroundColor=none;startFill=0;startSize=8;endFill=1;endSize=8;fontFamily=Verdana;fontSize=12;exitX=1;exitY=0.5;exitDx=0;exitDy=0;edgeStyle=orthogonalEdgeStyle;" parent="1" source="17472293e6e8944d-29" target="Cn7vjRRLhSuz2T1DTuax-7" edge="1">
          <mxGeometry relative="1" as="geometry">
            <mxPoint x="1130" y="106" as="targetPoint" />
          </mxGeometry>
        </mxCell>
        <mxCell id="wmSecnhCIObgYq9AWwNq-12" value="Регистрация пациента" style="edgeLabel;html=1;align=center;verticalAlign=middle;resizable=0;points=[];" parent="1fdf3b25b50cf41e-38" vertex="1" connectable="0">
          <mxGeometry x="-0.0505" y="-3" relative="1" as="geometry">
            <mxPoint x="-29" y="-3" as="offset" />
          </mxGeometry>
        </mxCell>
        <mxCell id="1fdf3b25b50cf41e-1" value="1.1" style="swimlane;html=1;fontStyle=0;childLayout=stackLayout;horizontal=1;startSize=26;fillColor=#e0e0e0;horizontalStack=0;resizeParent=1;resizeLast=0;collapsible=1;marginBottom=0;swimlaneFillColor=#ffffff;align=center;rounded=1;shadow=0;comic=0;labelBackgroundColor=none;strokeWidth=1;fontFamily=Verdana;fontSize=12" parent="1" vertex="1">
          <mxGeometry x="430" y="54" width="160" height="100" as="geometry">
            <mxRectangle x="430" y="54" width="60" height="30" as="alternateBounds" />
          </mxGeometry>
        </mxCell>
        <mxCell id="1fdf3b25b50cf41e-2" value="Заполнение формы с ПД:&lt;div&gt;Ф. И. О., дата рождения, телефон и электронная почта&lt;/div&gt;" style="text;html=1;strokeColor=none;fillColor=none;spacingLeft=4;spacingRight=4;whiteSpace=wrap;overflow=hidden;rotatable=0;points=[[0,0.5],[1,0.5]];portConstraint=eastwest;align=center;" parent="1fdf3b25b50cf41e-1" vertex="1">
          <mxGeometry y="26" width="160" height="74" as="geometry" />
        </mxCell>
        <mxCell id="wmSecnhCIObgYq9AWwNq-2" value="1.2" style="swimlane;html=1;fontStyle=0;childLayout=stackLayout;horizontal=1;startSize=26;fillColor=#e0e0e0;horizontalStack=0;resizeParent=1;resizeLast=0;collapsible=1;marginBottom=0;swimlaneFillColor=#ffffff;align=center;rounded=1;shadow=0;comic=0;labelBackgroundColor=none;strokeWidth=1;fontFamily=Verdana;fontSize=12" parent="1" vertex="1">
          <mxGeometry x="430" y="250" width="160" height="110" as="geometry" />
        </mxCell>
        <mxCell id="wmSecnhCIObgYq9AWwNq-3" value="Заполнение расширенной ПД:&amp;nbsp;адрес прописки, место работы или учёбы, хронические заболевания" style="text;html=1;strokeColor=none;fillColor=none;spacingLeft=4;spacingRight=4;whiteSpace=wrap;overflow=hidden;rotatable=0;points=[[0,0.5],[1,0.5]];portConstraint=eastwest;align=center;" parent="wmSecnhCIObgYq9AWwNq-2" vertex="1">
          <mxGeometry y="26" width="160" height="84" as="geometry" />
        </mxCell>
        <mxCell id="wmSecnhCIObgYq9AWwNq-4" value="2.1" style="swimlane;html=1;fontStyle=0;childLayout=stackLayout;horizontal=1;startSize=26;fillColor=#e0e0e0;horizontalStack=0;resizeParent=1;resizeLast=0;collapsible=1;marginBottom=0;swimlaneFillColor=#ffffff;align=center;rounded=1;shadow=0;comic=0;labelBackgroundColor=none;strokeWidth=1;fontFamily=Verdana;fontSize=12" parent="1" vertex="1">
          <mxGeometry x="1260" y="80" width="140" height="52" as="geometry" />
        </mxCell>
        <mxCell id="wmSecnhCIObgYq9AWwNq-5" value="Заполнение Excel" style="text;html=1;strokeColor=none;fillColor=none;spacingLeft=4;spacingRight=4;whiteSpace=wrap;overflow=hidden;rotatable=0;points=[[0,0.5],[1,0.5]];portConstraint=eastwest;align=center;" parent="wmSecnhCIObgYq9AWwNq-4" vertex="1">
          <mxGeometry y="26" width="140" height="26" as="geometry" />
        </mxCell>
        <mxCell id="wmSecnhCIObgYq9AWwNq-6" style="edgeStyle=orthogonalEdgeStyle;html=1;labelBackgroundColor=none;startFill=0;startSize=8;endFill=1;endSize=8;fontFamily=Verdana;fontSize=12;entryX=0.25;entryY=1;entryDx=0;entryDy=0;exitX=1;exitY=0.5;exitDx=0;exitDy=0;" parent="1" source="wmSecnhCIObgYq9AWwNq-3" target="17472293e6e8944d-29" edge="1">
          <mxGeometry relative="1" as="geometry">
            <mxPoint x="500" y="200" as="sourcePoint" />
            <mxPoint x="500" y="266" as="targetPoint" />
          </mxGeometry>
        </mxCell>
        <mxCell id="wmSecnhCIObgYq9AWwNq-9" value="Передача сотруднику" style="edgeLabel;html=1;align=center;verticalAlign=middle;resizable=0;points=[];" parent="wmSecnhCIObgYq9AWwNq-6" vertex="1" connectable="0">
          <mxGeometry x="-0.4232" y="-1" relative="1" as="geometry">
            <mxPoint x="-19" y="-1" as="offset" />
          </mxGeometry>
        </mxCell>
        <mxCell id="wmSecnhCIObgYq9AWwNq-13" style="html=1;labelBackgroundColor=none;startFill=0;startSize=8;endFill=1;endSize=8;fontFamily=Verdana;fontSize=12;exitX=1;exitY=0.5;exitDx=0;exitDy=0;edgeStyle=orthogonalEdgeStyle;" parent="1" source="wmSecnhCIObgYq9AWwNq-4" target="GScF6QNm8lptJL9Kl9GE-3" edge="1">
          <mxGeometry relative="1" as="geometry">
            <mxPoint x="1080" y="101" as="sourcePoint" />
            <mxPoint x="1490" y="106" as="targetPoint" />
          </mxGeometry>
        </mxCell>
        <mxCell id="wmSecnhCIObgYq9AWwNq-14" value="Сохранение" style="edgeLabel;html=1;align=center;verticalAlign=middle;resizable=0;points=[];" parent="wmSecnhCIObgYq9AWwNq-13" vertex="1" connectable="0">
          <mxGeometry x="-0.0505" y="-3" relative="1" as="geometry">
            <mxPoint x="-2" y="-5" as="offset" />
          </mxGeometry>
        </mxCell>
        <mxCell id="wmSecnhCIObgYq9AWwNq-15" value="2.2" style="swimlane;html=1;fontStyle=0;childLayout=stackLayout;horizontal=1;startSize=26;fillColor=#e0e0e0;horizontalStack=0;resizeParent=1;resizeLast=0;collapsible=1;marginBottom=0;swimlaneFillColor=#ffffff;align=center;rounded=1;shadow=0;comic=0;labelBackgroundColor=none;strokeWidth=1;fontFamily=Verdana;fontSize=12" parent="1" vertex="1">
          <mxGeometry x="1260" y="191" width="140" height="70" as="geometry" />
        </mxCell>
        <mxCell id="wmSecnhCIObgYq9AWwNq-16" value="Сканирование документов" style="text;html=1;strokeColor=none;fillColor=none;spacingLeft=4;spacingRight=4;whiteSpace=wrap;overflow=hidden;rotatable=0;points=[[0,0.5],[1,0.5]];portConstraint=eastwest;align=center;" parent="wmSecnhCIObgYq9AWwNq-15" vertex="1">
          <mxGeometry y="26" width="140" height="44" as="geometry" />
        </mxCell>
        <mxCell id="wmSecnhCIObgYq9AWwNq-17" style="html=1;labelBackgroundColor=none;startFill=0;startSize=8;endFill=1;endSize=8;fontFamily=Verdana;fontSize=12;exitX=1;exitY=0.75;exitDx=0;exitDy=0;edgeStyle=orthogonalEdgeStyle;" parent="1" source="17472293e6e8944d-29" target="Cn7vjRRLhSuz2T1DTuax-9" edge="1">
          <mxGeometry relative="1" as="geometry">
            <mxPoint x="880" y="100" as="sourcePoint" />
            <mxPoint x="1170" y="226" as="targetPoint" />
            <Array as="points">
              <mxPoint x="990" y="117" />
              <mxPoint x="990" y="226" />
            </Array>
          </mxGeometry>
        </mxCell>
        <mxCell id="wmSecnhCIObgYq9AWwNq-18" value="Регистрация ПД пациента" style="edgeLabel;html=1;align=center;verticalAlign=middle;resizable=0;points=[];" parent="wmSecnhCIObgYq9AWwNq-17" vertex="1" connectable="0">
          <mxGeometry x="-0.0505" y="-3" relative="1" as="geometry">
            <mxPoint x="3" y="27" as="offset" />
          </mxGeometry>
        </mxCell>
        <mxCell id="wmSecnhCIObgYq9AWwNq-20" value="&lt;span style=&quot;font-family: Helvetica; text-align: left; text-wrap-mode: wrap;&quot;&gt;Pacient1-FIO-BD&lt;/span&gt;" style="html=1;rounded=0;shadow=0;comic=0;labelBackgroundColor=none;strokeWidth=2;fontFamily=Verdana;fontSize=12;align=center;shape=mxgraph.ios7ui.horLines;" parent="1" vertex="1">
          <mxGeometry x="1680" y="201" width="135" height="50" as="geometry" />
        </mxCell>
        <mxCell id="wmSecnhCIObgYq9AWwNq-21" style="html=1;labelBackgroundColor=none;startFill=0;startSize=8;endFill=1;endSize=8;fontFamily=Verdana;fontSize=12;exitX=1;exitY=0.5;exitDx=0;exitDy=0;edgeStyle=orthogonalEdgeStyle;" parent="1" source="wmSecnhCIObgYq9AWwNq-15" target="GScF6QNm8lptJL9Kl9GE-6" edge="1">
          <mxGeometry relative="1" as="geometry">
            <mxPoint x="1430" y="82" as="sourcePoint" />
            <mxPoint x="1490" y="226" as="targetPoint" />
          </mxGeometry>
        </mxCell>
        <mxCell id="wmSecnhCIObgYq9AWwNq-22" value="Сохранение" style="edgeLabel;html=1;align=center;verticalAlign=middle;resizable=0;points=[];" parent="wmSecnhCIObgYq9AWwNq-21" vertex="1" connectable="0">
          <mxGeometry x="-0.0505" y="-3" relative="1" as="geometry">
            <mxPoint x="-2" y="-5" as="offset" />
          </mxGeometry>
        </mxCell>
        <mxCell id="wmSecnhCIObgYq9AWwNq-23" value="3.1" style="swimlane;html=1;fontStyle=0;childLayout=stackLayout;horizontal=1;startSize=26;fillColor=#e0e0e0;horizontalStack=0;resizeParent=1;resizeLast=0;collapsible=1;marginBottom=0;swimlaneFillColor=#ffffff;align=center;rounded=1;shadow=0;comic=0;labelBackgroundColor=none;strokeWidth=1;fontFamily=Verdana;fontSize=12" parent="1" vertex="1">
          <mxGeometry x="1260" y="300" width="140" height="70" as="geometry" />
        </mxCell>
        <mxCell id="wmSecnhCIObgYq9AWwNq-24" value="Заполнение Excel врача" style="text;html=1;strokeColor=none;fillColor=none;spacingLeft=4;spacingRight=4;whiteSpace=wrap;overflow=hidden;rotatable=0;points=[[0,0.5],[1,0.5]];portConstraint=eastwest;align=center;" parent="wmSecnhCIObgYq9AWwNq-23" vertex="1">
          <mxGeometry y="26" width="140" height="44" as="geometry" />
        </mxCell>
        <mxCell id="wmSecnhCIObgYq9AWwNq-27" style="html=1;labelBackgroundColor=none;startFill=0;startSize=8;endFill=1;endSize=8;fontFamily=Verdana;fontSize=12;exitX=0.75;exitY=1;exitDx=0;exitDy=0;edgeStyle=orthogonalEdgeStyle;" parent="1" source="17472293e6e8944d-29" target="Cn7vjRRLhSuz2T1DTuax-11" edge="1">
          <mxGeometry relative="1" as="geometry">
            <mxPoint x="960" y="130" as="sourcePoint" />
            <mxPoint x="1020" y="310" as="targetPoint" />
            <Array as="points">
              <mxPoint x="840" y="335" />
            </Array>
          </mxGeometry>
        </mxCell>
        <mxCell id="wmSecnhCIObgYq9AWwNq-28" value="Запись пациента к врачу" style="edgeLabel;html=1;align=center;verticalAlign=middle;resizable=0;points=[];" parent="wmSecnhCIObgYq9AWwNq-27" vertex="1" connectable="0">
          <mxGeometry x="-0.0505" y="-3" relative="1" as="geometry">
            <mxPoint x="99" y="-3" as="offset" />
          </mxGeometry>
        </mxCell>
        <mxCell id="wmSecnhCIObgYq9AWwNq-29" value="&lt;div style=&quot;text-align: left;&quot;&gt;&lt;span style=&quot;background-color: transparent; text-wrap-mode: wrap;&quot;&gt;&lt;font face=&quot;Helvetica&quot;&gt;Journals&lt;/font&gt;&lt;/span&gt;&lt;/div&gt;" style="html=1;rounded=0;shadow=0;comic=0;labelBackgroundColor=none;strokeWidth=2;fontFamily=Verdana;fontSize=12;align=center;shape=mxgraph.ios7ui.horLines;" parent="1" vertex="1">
          <mxGeometry x="1680" y="310" width="135" height="50" as="geometry" />
        </mxCell>
        <mxCell id="wmSecnhCIObgYq9AWwNq-30" style="html=1;labelBackgroundColor=none;startFill=0;startSize=8;endFill=1;endSize=8;fontFamily=Verdana;fontSize=12;exitX=1;exitY=0.5;exitDx=0;exitDy=0;edgeStyle=orthogonalEdgeStyle;" parent="1" source="wmSecnhCIObgYq9AWwNq-23" target="GScF6QNm8lptJL9Kl9GE-8" edge="1">
          <mxGeometry relative="1" as="geometry">
            <mxPoint x="1430" y="211" as="sourcePoint" />
            <mxPoint x="1490" y="335" as="targetPoint" />
          </mxGeometry>
        </mxCell>
        <mxCell id="wmSecnhCIObgYq9AWwNq-31" value="Сохранение" style="edgeLabel;html=1;align=center;verticalAlign=middle;resizable=0;points=[];" parent="wmSecnhCIObgYq9AWwNq-30" vertex="1" connectable="0">
          <mxGeometry x="-0.0505" y="-3" relative="1" as="geometry">
            <mxPoint x="-2" y="-5" as="offset" />
          </mxGeometry>
        </mxCell>
        <mxCell id="Cn7vjRRLhSuz2T1DTuax-1" value="1.0" style="swimlane;html=1;fontStyle=0;childLayout=stackLayout;horizontal=1;startSize=26;horizontalStack=0;resizeParent=1;resizeLast=0;collapsible=1;marginBottom=0;swimlaneFillColor=#ffffff;align=center;rounded=1;shadow=0;comic=0;labelBackgroundColor=none;strokeWidth=1;fontFamily=Verdana;fontSize=12;fillColor=#d5e8d4;strokeColor=#82b366;" parent="1" vertex="1">
          <mxGeometry x="200" y="59" width="160" height="90" as="geometry">
            <mxRectangle x="430" y="54" width="60" height="30" as="alternateBounds" />
          </mxGeometry>
        </mxCell>
        <mxCell id="Cn7vjRRLhSuz2T1DTuax-2" value="Получение согласия на обработку персональных данных" style="text;html=1;spacingLeft=4;spacingRight=4;whiteSpace=wrap;overflow=hidden;rotatable=0;points=[[0,0.5],[1,0.5]];portConstraint=eastwest;align=center;" parent="Cn7vjRRLhSuz2T1DTuax-1" vertex="1">
          <mxGeometry y="26" width="160" height="54" as="geometry" />
        </mxCell>
        <mxCell id="Cn7vjRRLhSuz2T1DTuax-3" style="edgeStyle=none;html=1;labelBackgroundColor=none;startFill=0;startSize=8;endFill=1;endSize=8;fontFamily=Verdana;fontSize=12;" parent="1" source="Cn7vjRRLhSuz2T1DTuax-1" target="1fdf3b25b50cf41e-1" edge="1">
          <mxGeometry relative="1" as="geometry">
            <mxPoint x="510" y="256" as="targetPoint" />
            <mxPoint x="510" y="160" as="sourcePoint" />
          </mxGeometry>
        </mxCell>
        <mxCell id="Cn7vjRRLhSuz2T1DTuax-7" value="2.0" style="swimlane;html=1;fontStyle=0;childLayout=stackLayout;horizontal=1;startSize=26;fillColor=#d5e8d4;horizontalStack=0;resizeParent=1;resizeLast=0;collapsible=1;marginBottom=0;swimlaneFillColor=#ffffff;align=center;rounded=1;shadow=0;comic=0;labelBackgroundColor=none;strokeWidth=1;fontFamily=Verdana;fontSize=12;strokeColor=#82b366;" parent="1" vertex="1">
          <mxGeometry x="1070" y="71" width="140" height="70" as="geometry" />
        </mxCell>
        <mxCell id="Cn7vjRRLhSuz2T1DTuax-8" value="Получение доступа по ролевой модели" style="text;html=1;strokeColor=none;fillColor=none;spacingLeft=4;spacingRight=4;whiteSpace=wrap;overflow=hidden;rotatable=0;points=[[0,0.5],[1,0.5]];portConstraint=eastwest;align=center;" parent="Cn7vjRRLhSuz2T1DTuax-7" vertex="1">
          <mxGeometry y="26" width="140" height="44" as="geometry" />
        </mxCell>
        <mxCell id="Cn7vjRRLhSuz2T1DTuax-9" value="2.0" style="swimlane;html=1;fontStyle=0;childLayout=stackLayout;horizontal=1;startSize=26;fillColor=#d5e8d4;horizontalStack=0;resizeParent=1;resizeLast=0;collapsible=1;marginBottom=0;swimlaneFillColor=#ffffff;align=center;rounded=1;shadow=0;comic=0;labelBackgroundColor=none;strokeWidth=1;fontFamily=Verdana;fontSize=12;strokeColor=#82b366;" parent="1" vertex="1">
          <mxGeometry x="1070" y="191" width="140" height="70" as="geometry" />
        </mxCell>
        <mxCell id="Cn7vjRRLhSuz2T1DTuax-10" value="Получение доступа по ролевой модели" style="text;html=1;strokeColor=none;fillColor=none;spacingLeft=4;spacingRight=4;whiteSpace=wrap;overflow=hidden;rotatable=0;points=[[0,0.5],[1,0.5]];portConstraint=eastwest;align=center;" parent="Cn7vjRRLhSuz2T1DTuax-9" vertex="1">
          <mxGeometry y="26" width="140" height="44" as="geometry" />
        </mxCell>
        <mxCell id="Cn7vjRRLhSuz2T1DTuax-11" value="2.0" style="swimlane;html=1;fontStyle=0;childLayout=stackLayout;horizontal=1;startSize=26;fillColor=#d5e8d4;horizontalStack=0;resizeParent=1;resizeLast=0;collapsible=1;marginBottom=0;swimlaneFillColor=#ffffff;align=center;rounded=1;shadow=0;comic=0;labelBackgroundColor=none;strokeWidth=1;fontFamily=Verdana;fontSize=12;strokeColor=#82b366;" parent="1" vertex="1">
          <mxGeometry x="1070" y="300" width="140" height="70" as="geometry" />
        </mxCell>
        <mxCell id="Cn7vjRRLhSuz2T1DTuax-12" value="Получение доступа по ролевой модели" style="text;html=1;strokeColor=none;fillColor=none;spacingLeft=4;spacingRight=4;whiteSpace=wrap;overflow=hidden;rotatable=0;points=[[0,0.5],[1,0.5]];portConstraint=eastwest;align=center;" parent="Cn7vjRRLhSuz2T1DTuax-11" vertex="1">
          <mxGeometry y="26" width="140" height="44" as="geometry" />
        </mxCell>
        <mxCell id="Cn7vjRRLhSuz2T1DTuax-13" style="html=1;labelBackgroundColor=none;startFill=0;startSize=8;endFill=1;endSize=8;fontFamily=Verdana;fontSize=12;edgeStyle=orthogonalEdgeStyle;" parent="1" source="Cn7vjRRLhSuz2T1DTuax-7" target="wmSecnhCIObgYq9AWwNq-4" edge="1">
          <mxGeometry relative="1" as="geometry">
            <mxPoint x="1420" y="101" as="sourcePoint" />
            <mxPoint x="1570" y="100" as="targetPoint" />
          </mxGeometry>
        </mxCell>
        <mxCell id="Cn7vjRRLhSuz2T1DTuax-15" style="html=1;labelBackgroundColor=none;startFill=0;startSize=8;endFill=1;endSize=8;fontFamily=Verdana;fontSize=12;edgeStyle=orthogonalEdgeStyle;" parent="1" source="Cn7vjRRLhSuz2T1DTuax-9" target="wmSecnhCIObgYq9AWwNq-15" edge="1">
          <mxGeometry relative="1" as="geometry">
            <mxPoint x="1230" y="100" as="sourcePoint" />
            <mxPoint x="1280" y="100" as="targetPoint" />
          </mxGeometry>
        </mxCell>
        <mxCell id="Cn7vjRRLhSuz2T1DTuax-16" style="html=1;labelBackgroundColor=none;startFill=0;startSize=8;endFill=1;endSize=8;fontFamily=Verdana;fontSize=12;edgeStyle=orthogonalEdgeStyle;" parent="1" source="Cn7vjRRLhSuz2T1DTuax-11" target="wmSecnhCIObgYq9AWwNq-23" edge="1">
          <mxGeometry relative="1" as="geometry">
            <mxPoint x="1260" y="271" as="sourcePoint" />
            <mxPoint x="1310" y="271" as="targetPoint" />
          </mxGeometry>
        </mxCell>
        <mxCell id="GScF6QNm8lptJL9Kl9GE-3" value="3.0" style="swimlane;html=1;fontStyle=0;childLayout=stackLayout;horizontal=1;startSize=26;fillColor=#d5e8d4;horizontalStack=0;resizeParent=1;resizeLast=0;collapsible=1;marginBottom=0;swimlaneFillColor=#ffffff;align=center;rounded=1;shadow=0;comic=0;labelBackgroundColor=none;strokeWidth=1;fontFamily=Verdana;fontSize=12;strokeColor=#82b366;" vertex="1" parent="1">
          <mxGeometry x="1500" y="78" width="140" height="52" as="geometry" />
        </mxCell>
        <mxCell id="GScF6QNm8lptJL9Kl9GE-4" value="Шифрование" style="text;html=1;strokeColor=none;fillColor=none;spacingLeft=4;spacingRight=4;whiteSpace=wrap;overflow=hidden;rotatable=0;points=[[0,0.5],[1,0.5]];portConstraint=eastwest;align=center;" vertex="1" parent="GScF6QNm8lptJL9Kl9GE-3">
          <mxGeometry y="26" width="140" height="26" as="geometry" />
        </mxCell>
        <mxCell id="GScF6QNm8lptJL9Kl9GE-5" style="html=1;labelBackgroundColor=none;startFill=0;startSize=8;endFill=1;endSize=8;fontFamily=Verdana;fontSize=12;edgeStyle=orthogonalEdgeStyle;" edge="1" parent="1" source="GScF6QNm8lptJL9Kl9GE-3" target="21ea969265ad0168-30">
          <mxGeometry relative="1" as="geometry">
            <mxPoint x="1650" y="100" as="sourcePoint" />
            <mxPoint x="1270" y="100" as="targetPoint" />
          </mxGeometry>
        </mxCell>
        <mxCell id="GScF6QNm8lptJL9Kl9GE-6" value="3.0" style="swimlane;html=1;fontStyle=0;childLayout=stackLayout;horizontal=1;startSize=26;fillColor=#d5e8d4;horizontalStack=0;resizeParent=1;resizeLast=0;collapsible=1;marginBottom=0;swimlaneFillColor=#ffffff;align=center;rounded=1;shadow=0;comic=0;labelBackgroundColor=none;strokeWidth=1;fontFamily=Verdana;fontSize=12;strokeColor=#82b366;" vertex="1" parent="1">
          <mxGeometry x="1500" y="200" width="140" height="52" as="geometry" />
        </mxCell>
        <mxCell id="GScF6QNm8lptJL9Kl9GE-7" value="Шифрование" style="text;html=1;strokeColor=none;fillColor=none;spacingLeft=4;spacingRight=4;whiteSpace=wrap;overflow=hidden;rotatable=0;points=[[0,0.5],[1,0.5]];portConstraint=eastwest;align=center;" vertex="1" parent="GScF6QNm8lptJL9Kl9GE-6">
          <mxGeometry y="26" width="140" height="26" as="geometry" />
        </mxCell>
        <mxCell id="GScF6QNm8lptJL9Kl9GE-8" value="3.0" style="swimlane;html=1;fontStyle=0;childLayout=stackLayout;horizontal=1;startSize=26;fillColor=#d5e8d4;horizontalStack=0;resizeParent=1;resizeLast=0;collapsible=1;marginBottom=0;swimlaneFillColor=#ffffff;align=center;rounded=1;shadow=0;comic=0;labelBackgroundColor=none;strokeWidth=1;fontFamily=Verdana;fontSize=12;strokeColor=#82b366;" vertex="1" parent="1">
          <mxGeometry x="1500" y="308" width="140" height="52" as="geometry" />
        </mxCell>
        <mxCell id="GScF6QNm8lptJL9Kl9GE-9" value="Шифрование" style="text;html=1;strokeColor=none;fillColor=none;spacingLeft=4;spacingRight=4;whiteSpace=wrap;overflow=hidden;rotatable=0;points=[[0,0.5],[1,0.5]];portConstraint=eastwest;align=center;" vertex="1" parent="GScF6QNm8lptJL9Kl9GE-8">
          <mxGeometry y="26" width="140" height="26" as="geometry" />
        </mxCell>
        <mxCell id="GScF6QNm8lptJL9Kl9GE-10" style="html=1;labelBackgroundColor=none;startFill=0;startSize=8;endFill=1;endSize=8;fontFamily=Verdana;fontSize=12;edgeStyle=orthogonalEdgeStyle;" edge="1" parent="1" source="GScF6QNm8lptJL9Kl9GE-6" target="wmSecnhCIObgYq9AWwNq-20">
          <mxGeometry relative="1" as="geometry">
            <mxPoint x="1660" y="180" as="sourcePoint" />
            <mxPoint x="1700" y="181" as="targetPoint" />
          </mxGeometry>
        </mxCell>
        <mxCell id="GScF6QNm8lptJL9Kl9GE-11" style="html=1;labelBackgroundColor=none;startFill=0;startSize=8;endFill=1;endSize=8;fontFamily=Verdana;fontSize=12;edgeStyle=orthogonalEdgeStyle;" edge="1" parent="1" source="GScF6QNm8lptJL9Kl9GE-8" target="wmSecnhCIObgYq9AWwNq-29">
          <mxGeometry relative="1" as="geometry">
            <mxPoint x="1640" y="310" as="sourcePoint" />
            <mxPoint x="1680" y="310" as="targetPoint" />
          </mxGeometry>
        </mxCell>
      </root>
    </mxGraphModel>
  </diagram>
</mxfile>
